<svg width="24" height="24" viewBox="0 0 24 24" fill="none" xmlns="http://www.w3.org/2000/svg">
<path d="M1.5 12C1.5 6.19591 6.19643 1.5 12 1.5C17.8041 1.5 22.5 6.19643 22.5 12C22.5 17.8041 17.8036 22.5 12 22.5C6.19591 22.5 1.5 17.8035 1.5 12ZM2.03489 12C2.03489 17.4953 6.50479 21.9651 12 21.9651C17.4953 21.9651 21.9651 17.4953 21.9651 12C21.9651 6.50474 17.4953 2.03489 12 2.03489C6.50479 2.03489 2.03489 6.50474 2.03489 12Z" fill="black" stroke="black"/>
<path d="M11.0742 16.0333C11.0742 15.6929 11.3511 15.4185 11.6746 15.4185C12.0066 15.4185 12.2895 15.7014 12.2895 16.0333C12.2895 16.3594 12.0127 16.6483 11.6746 16.6483C11.345 16.6483 11.0742 16.368 11.0742 16.0333Z" fill="black" stroke="black"/>
<path d="M13.0176 11.1211L13.0166 11.1219C12.5752 11.467 12.2976 11.8015 12.1513 12.1993C12.0137 12.5733 12.0137 12.9568 12.0137 13.3146L12.0137 13.3257C12.0137 13.343 12.0122 13.3539 12.0109 13.3599C12.0089 13.3612 12.0061 13.363 12.0023 13.3651C11.9923 13.3705 11.9751 13.3784 11.948 13.3866C11.8925 13.4033 11.8011 13.4194 11.6595 13.4194C11.5005 13.4194 11.4381 13.3997 11.419 13.3908C11.4139 13.3816 11.4029 13.3579 11.392 13.3092C11.3749 13.2331 11.3631 13.119 11.3631 12.9493C11.3631 12.4046 11.4824 12.0278 11.6299 11.7566C11.7788 11.483 11.9706 11.2903 12.1582 11.1285C12.2347 11.0636 12.3177 10.9999 12.4147 10.9254C12.4549 10.8946 12.4975 10.8619 12.543 10.8265C12.69 10.7123 12.8556 10.5787 13.0091 10.4263C13.3146 10.123 13.6219 9.69474 13.6219 9.11232C13.6219 8.61101 13.3931 8.21301 13.0264 7.95914C12.681 7.71998 12.2445 7.6277 11.8188 7.6277C11.3856 7.6277 11.0413 7.7099 10.7615 7.8638C10.481 8.01807 10.3064 8.22225 10.1836 8.39109C10.1478 8.4404 10.1068 8.50078 10.0744 8.54842C10.0593 8.57057 10.0462 8.58997 10.0362 8.60421C9.99517 8.66323 9.96893 8.69599 9.94799 8.7172C9.94677 8.71844 9.94561 8.71963 9.94451 8.72076C9.9279 8.73777 9.92313 8.74265 9.87851 8.74265C9.78453 8.74265 9.68141 8.70898 9.61143 8.65254C9.55516 8.60716 9.50977 8.54135 9.50977 8.4173C9.50977 7.99663 10.0901 6.97705 11.8622 6.97705C13.5544 6.97705 14.4462 7.88366 14.4462 8.86611C14.4462 9.39267 14.2075 9.87238 13.8887 10.2786C13.5714 10.6829 13.2061 10.9746 13.0176 11.1211ZM11.4119 13.3866C11.4121 13.3865 11.4137 13.3873 11.4161 13.3894C11.4129 13.3877 11.4118 13.3867 11.4119 13.3866Z" fill="black" stroke="black"/>
</svg>
