<?xml version="1.0" encoding="utf-8"?>
<!-- Generator: Adobe Illustrator 23.0.2, SVG Export Plug-In . SVG Version: 6.00 Build 0)  -->
<svg version="1.1" id="Layer_1" xmlns="http://www.w3.org/2000/svg" xmlns:xlink="http://www.w3.org/1999/xlink" x="0px" y="0px"
	 viewBox="0 0 512 512" style="enable-background:new 0 0 512 512;" xml:space="preserve">
<style type="text/css">
	.st0{fill-rule:evenodd;clip-rule:evenodd;fill:#76974C;}
	.st1{fill:#76974C;}
</style>
<path class="st0" d="M46.4,410.1c75.8,0,151.7,0,227.6,0c1.7,14.4,8.9,27,19.5,35.8H86C65,445.9,49.9,430,46.4,410.1z M426.1,66.3
	c21,0,36.1,15.9,39.6,35.8h-81.3C387.5,81.7,404.8,66.3,426.1,66.3z M144.6,66.3h246.1c-11.9,10-19.7,24.9-19.7,41.6l0,295.8
	c0,23.4-18.6,42.1-42,42.3c0,0-0.1,0-0.1,0c0,0-0.1,0-0.1,0c-23.3,0-42-18.5-42.2-41.8c0.2-3.4-1.9-7-6.5-6.9H102.3V108.5
	C102.3,85,121,66.3,144.6,66.3L144.6,66.3z M144.6,53.4c-30.4,0-55.1,24.7-55.1,55.1v288.7H37.3c-4.4,0-6.4,3.4-6.4,6.4
	c0,30.4,24.7,55.1,55.1,55.1h242.7c33.9,0,54.3-29,55.1-55.1V114.9h91c3.6,0,6.5-2.9,6.5-6.4c0-30.4-24.7-55.1-55.2-55.1H144.6z"/>
<path class="st1" d="M428,192h18.5l0.3,232.9l-9.1,12.2l-9.4-12.5L428,192z M421,179.1c-3.3,0.3-5.8,3.1-5.8,6.4l0.3,241.3
	c0,1.4,0.4,2.7,1.3,3.9l15.8,21c2.6,3.5,7.8,3.4,10.3,0l15.6-20.8c0.8-1.1,1.3-2.5,1.2-3.9l-0.3-241.5c0-3.6-2.9-6.4-6.5-6.4h-31.4
	C421.4,179.1,421.2,179.1,421,179.1L421,179.1z"/>
<path class="st1" d="M422.8,155.8c-8.6,0-7.9,12.9,0.7,12.9h28c8.9,0,8.9-12.9,0-12.9H422.8z"/>
<path class="st1" d="M162.5,146.8c-14.3,0-26.1,11.7-26.1,26v39c0,14.3,11.8,26,26.1,26h38.1c14.3,0,26.2-11.7,26.2-26v-10.6
	c0-8.6-12.9-8.6-12.9,0v10.6c0,7.4-5.8,13.1-13.2,13.1h-38.1c-7.5,0-13.2-5.8-13.2-13.1v-39c0-7.4,5.8-13.1,13.2-13.1h35.6
	c8.6,0,8.6-12.9,0-12.9H162.5z"/>
<path class="st1" d="M230.5,152.1c-1.7,0-3.3,0.7-4.5,1.9l-41.2,41L172,182.2c-2.5-2.7-6.7-2.8-9.3-0.2c-2.6,2.6-2.5,6.8,0.2,9.3
	l17.5,17.4c2.5,2.5,6.6,2.5,9.1,0l45.8-45.6C239.4,159,236.4,152,230.5,152.1L230.5,152.1z"/>
<path class="st1" d="M252.9,224.9c-3.6-0.1-6.7,2.8-6.7,6.5c0,3.7,3.1,6.6,6.7,6.4h77.5c3.6,0.1,6.7-2.8,6.7-6.4
	c0-3.7-3.1-6.6-6.7-6.5H252.9z"/>
<path class="st1" d="M275.6,146.8c-3.6,0-6.5,2.9-6.5,6.5c0,3.6,2.9,6.5,6.5,6.5h54.8c8.6,0,8.6-12.9,0-12.9H275.6z"/>
<path class="st1" d="M252.9,198.8c-3.6-0.1-6.7,2.8-6.7,6.5c0,3.7,3.1,6.6,6.7,6.4h77.5c3.6,0.1,6.7-2.8,6.7-6.4
	c0-3.7-3.1-6.6-6.7-6.5H252.9z"/>
<path class="st1" d="M252.9,172.8c-3.6-0.1-6.7,2.8-6.7,6.4c0,3.7,3.1,6.6,6.7,6.5h77.5c3.6,0.1,6.7-2.8,6.7-6.5
	c0-3.7-3.1-6.6-6.7-6.4H252.9z"/>
<path class="st1" d="M252.9,344.7c-8.6,0-8.6,12.9,0,12.9h77.5c8.6,0,8.6-12.9,0-12.9H252.9z"/>
<path class="st1" d="M275.6,266.5c-8.6,0-8.6,12.9,0,12.9h54.8c8.6,0,8.6-12.9,0-12.9H275.6z"/>
<path class="st1" d="M252.9,318.6c-3.6,0-6.5,2.9-6.5,6.5c0,3.6,2.9,6.5,6.5,6.5h77.5c8.6,0,8.6-12.9,0-12.9L252.9,318.6
	L252.9,318.6z"/>
<path class="st1" d="M252.9,292.6c-3.6,0-6.5,2.9-6.5,6.5c0,3.6,2.9,6.5,6.5,6.5h77.5c8.6,0,8.6-12.9,0-12.9L252.9,292.6
	L252.9,292.6z"/>
<path class="st1" d="M162.5,266.6c-14.3,0-26.1,11.7-26.1,26v39c0,14.3,11.8,26,26.1,26h38.1c14.3,0,26.2-11.7,26.2-26v-10.5
	c0-8.6-12.9-8.6-12.9,0v10.5c0,7.3-5.8,13.1-13.2,13.1h-38.1c-7.5,0-13.2-5.7-13.2-13.1v-39c0-7.4,5.8-13.1,13.2-13.1h35.6
	c8.6,0,8.6-12.9,0-12.9H162.5z"/>
<path class="st1" d="M230.5,271.9c-1.7,0-3.3,0.7-4.5,1.9l-41.2,41L172,302.1c-2.5-2.7-6.7-2.8-9.3-0.2c-2.6,2.6-2.5,6.8,0.2,9.3
	l17.5,17.4c2.5,2.5,6.6,2.5,9.1,0l45.8-45.6C239.4,278.9,236.4,271.8,230.5,271.9z"/>
</svg>
